<?xml version="1.0" encoding="UTF-8" standalone="no"?><!DOCTYPE svg PUBLIC "-//W3C//DTD SVG 1.1//EN" "http://www.w3.org/Graphics/SVG/1.1/DTD/svg11.dtd"><svg width="100%" height="100%" viewBox="0 0 216 216" version="1.1" xmlns="http://www.w3.org/2000/svg" xmlns:xlink="http://www.w3.org/1999/xlink" xml:space="preserve" xmlns:serif="http://www.serif.com/" style="fill-rule:evenodd;clip-rule:evenodd;stroke-linejoin:round;stroke-miterlimit:2;"><path d="M215.579,53.895c-0,-29.746 -24.15,-53.895 -53.895,-53.895l-107.789,0c-29.746,0 -53.895,24.149 -53.895,53.895l0,107.789c0,29.745 24.149,53.895 53.895,53.895l107.789,-0c29.745,-0 53.895,-24.15 53.895,-53.895l-0,-107.789Z" style="fill:#f04e4f;"/><g><path d="M65.234,26.269c-11.675,-0 -21.14,9.465 -21.14,21.14l0,120.76c0,11.676 9.465,21.141 21.14,21.141c11.676,-0 21.141,-9.465 21.141,-21.141l0,-120.76c0,-11.675 -9.465,-21.14 -21.141,-21.14m0,14.202c3.826,-0 6.939,3.112 6.939,6.938l-0,120.76c-0,3.825 -3.113,6.939 -6.939,6.939c-3.826,-0 -6.938,-3.114 -6.938,-6.939l-0,-120.76c-0,-3.826 3.112,-6.938 6.938,-6.938" style="fill:#fff;fill-rule:nonzero;"/><path d="M150.344,26.269c-11.676,-0 -21.141,9.465 -21.141,21.14l0,52.59c0,11.676 9.465,21.141 21.141,21.141c11.675,0 21.14,-9.465 21.14,-21.141l0,-52.59c0,-11.675 -9.465,-21.14 -21.14,-21.14m0,14.202c3.826,-0 6.939,3.112 6.939,6.938l-0,52.246c-0,3.239 -2.053,6.3 -5.2,7.071c-4.575,1.119 -8.677,-2.333 -8.677,-6.727l-0,-52.59c-0,-3.826 3.112,-6.938 6.938,-6.938" style="fill:#fff;fill-rule:nonzero;"/><rect x="72.173" y="95.657" width="14.202" height="50.707" style="fill:url(#_Linear1);"/><path d="M135.554,86.561l-49.058,0l0,14.202l49.058,-0c11.982,-0 21.729,9.746 21.729,21.728l-0,45.59c-0,3.826 -3.113,6.938 -6.938,6.938l-0.225,-0.003c-3.641,-0.109 -6.714,-3.691 -6.714,-7.822l-0,-37.83c-0,-8.119 -6.606,-14.723 -14.725,-14.723l-42.185,-0l0,14.201l42.185,-0c0.289,-0 0.522,0.234 0.522,0.522l0,37.83c0,11.576 8.92,21.67 20.491,22.018c0.217,0.006 0.434,0.009 0.651,0.009c11.676,0 21.139,-9.464 21.139,-21.14l0,-45.59c0,-19.843 -16.086,-35.93 -35.93,-35.93" style="fill:#fff;fill-rule:nonzero;"/><path d="M129.197,69.213l-0,30.786c-0,11.676 9.464,21.141 21.14,21.141c1.166,0 2.302,-0.119 3.416,-0.301l0,-14.822c-0.517,0.304 -1.069,0.561 -1.677,0.709c-4.574,1.119 -8.677,-2.333 -8.677,-6.727l-0,-30.786l-14.202,-0Z" style="fill:url(#_Linear2);fill-rule:nonzero;"/><path d="M135.554,86.56l-8.665,0l-0,14.202l8.665,-0c11.982,-0 21.729,9.747 21.729,21.729l-0,24.84l14.201,-0l0,-24.84c0,-19.843 -16.086,-35.931 -35.93,-35.931Z" style="fill:url(#_Radial3);fill-rule:nonzero;"/><path d="M169.349,109.251c-2.429,-6.195 -6.514,-11.604 -11.826,-15.652l-0.247,-0.188l-0,6.244c-0,3.239 -2.053,6.3 -5.2,7.071c-0.679,0.166 -1.345,0.22 -1.991,0.196l0.283,0.276c3.538,3.43 5.793,7.994 6.349,12.855l0.012,0.101c5.546,-1.758 10.103,-5.74 12.62,-10.903" style="fill:#fff;fill-rule:nonzero;"/><path d="M79.107,86.56c-11.891,0 -21.489,9.819 -21.13,21.792c0.347,11.57 10.441,20.49 22.017,20.49l15.747,-0l0,-14.202l-15.747,-0c-4.131,-0 -7.713,-3.075 -7.822,-6.714c-0.076,-2.566 1.192,-4.269 1.954,-5.055c0.764,-0.787 2.427,-2.109 4.981,-2.109l16.634,-0l0,-14.202l-16.634,0Z" style="fill:url(#_Linear4);fill-rule:nonzero;"/><path d="M86.363,86.271l-7.256,-0c-2.34,-0 -4.676,0.396 -6.946,1.174l0.001,20.341c-0.024,-2.409 1.154,-3.987 1.859,-4.713c0.732,-0.755 2.326,-2.02 4.773,-2.02l7.569,0l0,-14.782Z" style="fill:#fff;fill-rule:nonzero;"/><path d="M68.427,89.475c-6.426,3.775 -10.692,10.831 -10.45,18.877c0.347,11.57 10.441,20.49 22.017,20.49l15.747,-0l0,-14.202l-15.747,-0c-13.395,-0 -11.567,-12.604 -11.567,-25.165" style="fill:#fff;fill-rule:nonzero;"/></g><defs><linearGradient id="_Linear1" x1="0" y1="0" x2="1" y2="0" gradientUnits="userSpaceOnUse" gradientTransform="matrix(-0.581833,-45.9648,45.9648,-0.581833,79.5589,143.511)"><stop offset="0" style="stop-color:#fff;stop-opacity:1"/><stop offset="0.12" style="stop-color:#fff;stop-opacity:1"/><stop offset="0.54" style="stop-color:#4f4c4d;stop-opacity:1"/><stop offset="0.83" style="stop-color:#fff;stop-opacity:1"/><stop offset="1" style="stop-color:#fff;stop-opacity:1"/></linearGradient><linearGradient id="_Linear2" x1="0" y1="0" x2="1" y2="0" gradientUnits="userSpaceOnUse" gradientTransform="matrix(-3.48509,-33.2375,33.2375,-3.48509,142.053,109.079)"><stop offset="0" style="stop-color:#fff;stop-opacity:1"/><stop offset="0.03" style="stop-color:#fff;stop-opacity:1"/><stop offset="0.53" style="stop-color:#504c4d;stop-opacity:1"/><stop offset="0.55" style="stop-color:#4f4c4d;stop-opacity:1"/><stop offset="0.93" style="stop-color:#fefefe;stop-opacity:1"/><stop offset="0.95" style="stop-color:#fff;stop-opacity:1"/><stop offset="1" style="stop-color:#fff;stop-opacity:1"/></linearGradient><radialGradient id="_Radial3" cx="0" cy="0" r="1" gradientUnits="userSpaceOnUse" gradientTransform="matrix(-11.0131,-16.0775,16.0775,-11.0131,159.066,110.613)"><stop offset="0" style="stop-color:#4f4c4d;stop-opacity:1"/><stop offset="1" style="stop-color:#fff;stop-opacity:1"/></radialGradient><linearGradient id="_Linear4" x1="0" y1="0" x2="1" y2="0" gradientUnits="userSpaceOnUse" gradientTransform="matrix(26.3559,0,0,26.3559,68.4445,107.701)"><stop offset="0" style="stop-color:#fff;stop-opacity:1"/><stop offset="0.05" style="stop-color:#fff;stop-opacity:1"/><stop offset="0.45" style="stop-color:#4f4c4d;stop-opacity:1"/><stop offset="0.61" style="stop-color:#c4c3c3;stop-opacity:1"/><stop offset="1" style="stop-color:#fff;stop-opacity:1"/></linearGradient></defs></svg>