<?xml version="1.0" encoding="UTF-8" standalone="no"?><!DOCTYPE svg PUBLIC "-//W3C//DTD SVG 1.1//EN" "http://www.w3.org/Graphics/SVG/1.1/DTD/svg11.dtd"><svg width="100%" height="100%" viewBox="0 0 5278 1332" version="1.1" xmlns="http://www.w3.org/2000/svg" xmlns:xlink="http://www.w3.org/1999/xlink" xml:space="preserve" xmlns:serif="http://www.serif.com/" style="fill-rule:evenodd;clip-rule:evenodd;stroke-linejoin:round;stroke-miterlimit:2;"><rect x="0" y="0" width="5277.79" height="1331.82" style="fill:#003538;"/><path d="M2076.05,614.776l54.921,0c5.983,0 11.242,-1.312 15.783,-3.933c4.538,-2.621 8.046,-6.329 10.517,-11.129c2.475,-4.796 3.75,-10.334 3.821,-16.609c-0,-6.275 -1.238,-11.812 -3.708,-16.612c-2.475,-4.796 -5.98,-8.509 -10.521,-11.125c-4.538,-2.621 -9.838,-3.934 -15.892,-3.934l-54.921,0l0,-14.837l54.038,-0c9.3,-0 17.475,1.917 24.529,5.758c7.05,3.838 12.512,9.284 16.387,16.334c3.875,7.05 5.813,15.187 5.813,24.416c-0,9.229 -1.938,17.367 -5.813,24.417c-3.875,7.05 -9.358,12.496 -16.445,16.333c-7.088,3.838 -15.242,5.759 -24.471,5.759l-54.038,-0l0,-14.838Zm-9.858,-78.179l15.946,-0l-0,161.117l-15.946,-0l-0,-161.117Zm61.458,88.033l14.729,-5.091l41.192,78.175l-19.046,-0l-36.875,-73.084Z" style="fill:#fff;fill-rule:nonzero;"/><path d="M2214.03,536.705l15.946,0l0,161.009l-15.946,-0l0,-161.009Zm10.963,146.171l92.462,0l0,14.838l-92.462,-0l-0,-14.838Zm-0,-72.529l80.283,-0l0,14.837l-80.283,0l-0,-14.837Zm-0,-73.642l92.462,0l0,14.842l-92.462,-0l-0,-14.842Z" style="fill:#fff;fill-rule:nonzero;"/><path d="M2393.42,536.705l19.267,0l59.354,161.009l-17.717,-0l-51.271,-144.288l-51.271,144.288l-17.716,-0l59.354,-161.009Zm-32.004,107.084l84.712,-0l0,14.837l-84.712,0l-0,-14.837Z" style="fill:#fff;fill-rule:nonzero;"/><path d="M2540.25,699.376c-11.146,0 -20.946,-2.471 -29.4,-7.417c-8.454,-4.95 -15.004,-11.962 -19.654,-21.041c-4.654,-9.079 -6.979,-19.6 -6.979,-31.559l-0,-44.183c-0,-11.962 2.325,-22.479 6.979,-31.562c4.65,-9.08 11.2,-16.109 19.654,-21.092c8.454,-4.983 18.254,-7.475 29.4,-7.475c9.229,-0 17.717,1.883 25.467,5.646c7.754,3.766 14.233,9.1 19.437,16c5.204,6.904 8.729,14.896 10.575,23.975l-15.945,-0c-1.776,-6.054 -4.671,-11.404 -8.696,-16.054c-4.021,-4.655 -8.729,-8.271 -14.117,-10.855c-5.387,-2.583 -10.962,-3.875 -16.721,-3.875c-7.975,0 -14.987,1.884 -21.041,5.646c-6.05,3.767 -10.742,9.063 -14.063,15.892c-3.321,6.829 -4.983,14.746 -4.983,23.754l-0,44.183c-0,9.005 1.662,16.921 4.983,23.75c3.321,6.83 8.013,12.109 14.063,15.838c6.054,3.729 13.066,5.592 21.041,5.592c5.758,-0 11.334,-1.217 16.721,-3.655c5.388,-2.437 10.096,-5.979 14.117,-10.629c4.025,-4.654 6.92,-10.154 8.696,-16.5l15.945,0c-1.845,9.079 -5.391,17.071 -10.633,23.971c-5.242,6.904 -11.738,12.238 -19.488,16.004c-7.75,3.763 -16.204,5.646 -25.358,5.646Z" style="fill:#fff;fill-rule:nonzero;"/><path d="M2723.74,536.705l15.945,0l0,161.009l-15.945,-0l-0,-161.009Zm-98.113,0l15.946,0l-0,161.009l-15.946,-0l0,-161.009Zm10.742,73.75l96.008,0l0,15.392l-96.008,-0l-0,-15.392Z" style="fill:#fff;fill-rule:nonzero;"/><rect x="2782.88" y="536.705" width="15.946" height="161.008" style="fill:#fff;"/><path d="M2842.01,536.705l16.054,0l93.463,145.063l-6.533,-4.429l-0,-140.634l15.945,0l0,160.9l-16.279,0l-95.341,-146.171l8.637,6.313l0,139.858l-15.946,0l0,-160.9Z" style="fill:#fff;fill-rule:nonzero;"/><path d="M3110.87,615.439l-0,23.7c-0,13.433 -2.083,24.616 -6.254,33.55c-4.175,8.933 -10.429,15.612 -18.771,20.045c-8.342,4.43 -18.788,6.642 -31.338,6.642c-12.7,0 -23.275,-2.104 -31.725,-6.312c-8.454,-4.209 -14.783,-10.5 -18.991,-18.88c-4.209,-8.379 -6.313,-18.879 -6.313,-31.504l0,-47.504c0,-13.437 2.084,-24.604 6.254,-33.5c4.171,-8.896 10.43,-15.558 18.771,-19.987c8.342,-4.43 18.788,-6.642 31.338,-6.642c10.408,-0 19.379,1.771 26.908,5.312c7.533,3.546 13.696,8.842 18.496,15.892c4.796,7.05 8.229,15.929 10.296,26.633l-17.275,0c-1.917,-7.383 -4.596,-13.512 -8.029,-18.383c-3.43,-4.871 -7.675,-8.525 -12.734,-10.962c-5.054,-2.438 -10.941,-3.655 -17.662,-3.655c-9.005,0 -16.5,1.68 -22.48,5.038c-5.979,3.358 -10.462,8.379 -13.454,15.062c-2.987,6.68 -4.483,15.075 -4.483,25.192l0,47.504c0,9.375 1.513,17.146 4.538,23.309c3.029,6.166 7.587,10.8 13.679,13.9c6.087,3.1 13.712,4.65 22.866,4.65c8.934,-0 16.296,-1.588 22.092,-4.763c5.796,-3.175 10.15,-8.083 13.067,-14.729c2.916,-6.642 4.37,-15.171 4.37,-25.579l0.001,-9.192l-38.976,0l0.001,-14.837l55.808,-0Z" style="fill:#fff;fill-rule:nonzero;"/><path d="M3306.43,536.705l15.946,0l0,161.009l-15.946,-0l0,-161.009Zm-98.112,0l15.946,0l-0,161.009l-15.946,-0l-0,-161.009Zm10.741,73.75l96.009,0l-0,15.392l-96.009,-0l0,-15.392Z" style="fill:#fff;fill-rule:nonzero;"/><path d="M3362.24,536.705l15.945,0l0,161.009l-15.945,-0l-0,-161.009Zm10.962,146.171l92.463,0l-0,14.838l-92.463,-0l0,-14.838Zm0,-72.529l80.284,-0l-0.001,14.837l-80.283,0l0,-14.837Zm0,-73.642l92.463,0l-0,14.842l-92.463,-0l0,-14.842Z" style="fill:#fff;fill-rule:nonzero;"/><path d="M3541.63,536.705l19.271,0l59.354,161.009l-17.721,-0l-51.27,-144.288l-51.267,144.288l-17.721,-0l59.354,-161.009Zm-32,107.084l84.713,-0l-0,14.837l-84.713,0l0,-14.837Z" style="fill:#fff;fill-rule:nonzero;"/><path d="M3644.61,536.705l15.945,0l0,161.009l-15.946,-0l0,-161.009Zm11.296,146.171l92.134,0l-0,14.838l-92.134,-0l0,-14.838Z" style="fill:#fff;fill-rule:nonzero;"/><path d="M3786.25,620.422l51.491,-0c6.275,-0 11.809,-1.438 16.609,-4.317c4.8,-2.879 8.508,-6.904 11.129,-12.071c2.621,-5.166 3.929,-11.15 3.929,-17.941c0,-6.863 -1.308,-12.9 -3.929,-18.104c-2.621,-5.205 -6.329,-9.246 -11.129,-12.125c-4.8,-2.88 -10.334,-4.317 -16.609,-4.317l-51.491,-0l-0,-14.842l50.716,0c9.596,0 18.051,2.05 25.359,6.146c7.308,4.1 12.971,9.875 16.996,17.333c4.025,7.455 6.033,16.092 6.033,25.909c0,9.746 -2.008,18.329 -6.033,25.746c-4.025,7.42 -9.688,13.179 -16.996,17.275c-7.308,4.1 -15.763,6.145 -25.358,6.145l-50.717,0l-0,-14.837Zm-11.629,-83.717l15.946,0l-0,161.009l-15.946,-0l-0,-161.009Z" style="fill:#fff;fill-rule:nonzero;"/><path d="M2081,910.63l54.925,0c5.979,0 11.242,-1.308 15.779,-3.929c4.542,-2.621 8.046,-6.329 10.521,-11.129c2.471,-4.8 3.746,-10.338 3.821,-16.613c-0,-6.275 -1.238,-11.808 -3.713,-16.608c-2.47,-4.8 -5.979,-8.508 -10.516,-11.129c-4.542,-2.621 -9.838,-3.929 -15.892,-3.929l-54.925,-0l0,-14.842l54.038,0c9.304,0 17.479,1.921 24.529,5.758c7.05,3.842 12.512,9.284 16.387,16.334c3.879,7.05 5.817,15.191 5.817,24.416c-0,9.23 -1.938,17.367 -5.817,24.421c-3.875,7.05 -9.354,12.492 -16.441,16.334c-7.088,3.837 -15.246,5.758 -24.476,5.758l-54.037,-0l-0,-14.842Zm-9.854,-78.179l15.946,0l-0,161.121l-15.946,-0l-0,-161.121Zm61.458,88.038l14.725,-5.096l41.196,78.179l-19.046,-0l-36.875,-73.083Z" style="fill:#fff;fill-rule:nonzero;"/><path d="M2218.97,832.564l15.946,-0l-0,161.008l-15.946,-0l0,-161.008Zm10.963,146.17l92.466,0l0,14.838l-92.467,-0l0.001,-14.838Zm-0.001,-72.533l80.284,0l-0,14.838l-80.284,-0l0.001,-14.838Zm-0.001,-73.637l92.467,-0l0,14.837l-92.467,0l0.001,-14.837Z" style="fill:#fff;fill-rule:nonzero;"/><path d="M2398.37,832.564l19.266,-0l59.354,161.008l-17.716,-0l-51.271,-144.288l-51.271,144.288l-17.716,-0l59.354,-161.008Zm-32,107.079l84.708,-0l0,14.841l-84.708,0l-0,-14.841Z" style="fill:#fff;fill-rule:nonzero;"/><path d="M2545.2,995.234c-11.146,0 -20.946,-2.475 -29.4,-7.42c-8.45,-4.946 -15.004,-11.959 -19.654,-21.038c-4.65,-9.083 -6.975,-19.604 -6.975,-31.562l-0,-44.184c-0,-11.958 2.325,-22.479 6.975,-31.558c4.65,-9.079 11.204,-16.113 19.654,-21.096c8.454,-4.983 18.254,-7.475 29.4,-7.475c9.229,0 17.721,1.883 25.471,5.65c7.75,3.763 14.229,9.096 19.433,16c5.204,6.904 8.729,14.892 10.575,23.975l-15.946,0c-1.77,-6.054 -4.666,-11.408 -8.691,-16.058c-4.025,-4.65 -8.73,-8.267 -14.121,-10.85c-5.388,-2.584 -10.963,-3.879 -16.721,-3.879c-7.971,-0 -14.983,1.883 -21.038,5.65c-6.054,3.762 -10.741,9.062 -14.062,15.891c-3.325,6.825 -4.983,14.746 -4.983,23.75l-0,44.184c-0,9.008 1.658,16.925 4.983,23.754c3.321,6.829 8.008,12.108 14.062,15.833c6.055,3.729 13.067,5.592 21.038,5.592c5.758,-0 11.333,-1.217 16.721,-3.654c5.391,-2.434 10.096,-5.98 14.121,-10.63c4.025,-4.65 6.92,-10.15 8.691,-16.5l15.946,0c-1.846,9.08 -5.387,17.071 -10.629,23.975c-5.242,6.905 -11.738,12.238 -19.492,16c-7.75,3.767 -16.204,5.65 -25.358,5.65Z" style="fill:#fff;fill-rule:nonzero;"/><path d="M2728.69,832.564l15.946,-0l-0,161.008l-15.946,-0l-0,-161.008Zm-98.113,-0l15.946,-0l0,161.008l-15.946,-0l0,-161.008Zm10.742,73.75l96.004,-0l0,15.391l-96.004,0l-0,-15.391Z" style="fill:#fff;fill-rule:nonzero;"/><rect x="2787.82" y="832.564" width="15.946" height="161.008" style="fill:#fff;"/><path d="M2846.95,832.564l16.059,-0l93.458,145.062l-6.534,-4.429l0.001,-140.633l15.945,-0l0,160.895l-16.279,0l-95.342,-146.166l8.638,6.308l-0,139.858l-15.946,0l0,-160.895Z" style="fill:#fff;fill-rule:nonzero;"/><path d="M3115.82,911.297l-0,23.696c-0,13.437 -2.088,24.621 -6.258,33.554c-4.171,8.933 -10.43,15.612 -18.771,20.042c-8.342,4.429 -18.788,6.645 -31.338,6.645c-12.696,0 -23.271,-2.104 -31.725,-6.312c-8.454,-4.208 -14.783,-10.504 -18.991,-18.879c-4.209,-8.379 -6.313,-18.884 -6.313,-31.504l0,-47.509c0,-13.433 2.088,-24.6 6.258,-33.496c4.171,-8.895 10.43,-15.558 18.771,-19.987c8.342,-4.429 18.788,-6.646 31.338,-6.646c10.408,0 19.379,1.771 26.908,5.317c7.529,3.541 13.692,8.841 18.492,15.891c4.8,7.05 8.233,15.925 10.3,26.63l-17.275,-0c-1.921,-7.38 -4.596,-13.509 -8.03,-18.38c-3.433,-4.875 -7.679,-8.529 -12.733,-10.962c-5.058,-2.438 -10.946,-3.658 -17.662,-3.658c-9.009,-0 -16.5,1.683 -22.479,5.041c-5.98,3.359 -10.467,8.379 -13.455,15.059c-2.991,6.683 -4.487,15.079 -4.487,25.191l-0,47.509c-0,9.375 1.516,17.141 4.541,23.308c3.025,6.162 7.588,10.796 13.675,13.896c6.092,3.1 13.713,4.65 22.867,4.65c8.933,-0 16.296,-1.588 22.092,-4.759c5.796,-3.175 10.15,-8.083 13.066,-14.729c2.917,-6.646 4.375,-15.171 4.375,-25.579l0,-9.192l-38.979,0l0,-14.837l55.813,-0Z" style="fill:#fff;fill-rule:nonzero;"/><path d="M3311.38,832.564l15.946,-0l0,161.008l-15.946,-0l0,-161.008Zm-98.112,-0l15.946,-0l-0,161.008l-15.946,-0l-0,-161.008Zm10.741,73.75l96.009,-0l-0,15.391l-96.009,0l0,-15.391Z" style="fill:#fff;fill-rule:nonzero;"/><path d="M3367.19,832.564l15.945,-0l0,161.008l-15.945,-0l-0,-161.008Zm10.962,146.17l92.463,0l-0.001,14.838l-92.462,-0l0,-14.838Zm0,-72.533l80.283,0l0,14.838l-80.283,-0l0,-14.838Zm0,-73.637l92.463,-0l-0.001,14.837l-92.462,0l0,-14.837Z" style="fill:#fff;fill-rule:nonzero;"/><path d="M3546.58,832.564l19.267,-0l59.354,161.008l-17.717,-0l-51.27,-144.288l-51.271,144.288l-17.717,-0l59.354,-161.008Zm-32.004,107.079l84.713,-0l-0,14.841l-84.713,0l0,-14.841Z" style="fill:#fff;fill-rule:nonzero;"/><path d="M3649.56,832.564l15.945,-0l0,161.008l-15.946,-0l0,-161.008Zm11.296,146.17l92.13,0l-0.001,14.838l-92.129,-0l0,-14.838Z" style="fill:#fff;fill-rule:nonzero;"/><path d="M3799.61,839.097l15.946,-0l0,154.475l-15.946,-0l0,-154.475Zm-48.833,-6.533l113.613,-0l-0,14.837l-113.613,0l0,-14.837Z" style="fill:#fff;fill-rule:nonzero;"/><path d="M3984.65,832.564l15.946,-0l-0,161.008l-15.946,-0l-0,-161.008Zm-98.113,-0l15.946,-0l0,161.008l-15.946,-0l0,-161.008Zm10.742,73.75l96.008,-0l0,15.391l-96.008,0l-0,-15.391Z" style="fill:#fff;fill-rule:nonzero;"/><path d="M1884.21,620.401c-0,-83.758 -68.005,-151.758 -151.759,-151.758l-303.512,-0c-83.759,-0 -151.755,68 -151.755,151.758l0.001,303.513c-0,83.754 67.995,151.754 151.754,151.754l303.512,-0c83.754,-0 151.759,-68 151.759,-151.754l-0,-303.513Z" style="fill:#f04e4f;"/><path d="M1460.87,542.609c-32.875,0 -59.525,26.655 -59.525,59.53l-0,340.033c-0,32.879 26.65,59.529 59.525,59.529c32.879,0 59.529,-26.65 59.529,-59.529l-0,-340.033c-0,-32.875 -26.65,-59.53 -59.529,-59.53m-0,39.992c10.775,0 19.537,8.763 19.537,19.538l0,340.033c0,10.771 -8.762,19.537 -19.537,19.537c-10.775,0 -19.538,-8.766 -19.538,-19.537l0,-340.033c0,-10.775 8.763,-19.538 19.538,-19.538" style="fill:#fff;fill-rule:nonzero;"/><path d="M1700.52,542.609c-32.875,0 -59.525,26.655 -59.525,59.53l-0,148.079c-0,32.879 26.65,59.529 59.525,59.529c32.875,-0 59.529,-26.65 59.529,-59.529l0,-148.079c0,-32.875 -26.654,-59.53 -59.529,-59.53m-0,39.992c10.775,0 19.542,8.763 19.542,19.538l-0,147.112c-0,9.121 -5.784,17.738 -14.642,19.908c-12.883,3.155 -24.433,-6.566 -24.433,-18.941l-0,-148.079c-0,-10.775 8.762,-19.538 19.533,-19.538" style="fill:#fff;fill-rule:nonzero;"/><rect x="1480.41" y="737.993" width="39.992" height="142.779" style="fill:url(#_Linear1);"/><path d="M1658.88,712.38l-138.137,0l-0,39.992l138.137,-0c33.738,-0 61.183,27.442 61.183,61.179l0,128.375c0,10.771 -8.766,19.533 -19.537,19.533l-0.633,-0.008c-10.25,-0.308 -18.904,-10.392 -18.904,-22.025l-0,-106.521c-0,-22.862 -18.6,-41.458 -41.463,-41.458l-118.783,-0l-0,39.987l118.783,0c0.813,0 1.471,0.659 1.471,1.471l-0,106.521c-0,32.596 25.117,61.017 57.696,62c0.612,0.017 1.221,0.025 1.833,0.025c32.879,0 59.525,-26.65 59.525,-59.525l-0,-128.375c-0,-55.871 -45.296,-101.171 -101.171,-101.171" style="fill:#fff;fill-rule:nonzero;"/><path d="M1640.98,663.534l0,86.684c0,32.879 26.646,59.529 59.525,59.529c3.284,-0 6.479,-0.333 9.617,-0.846l-0,-41.737c-1.454,0.858 -3.008,1.579 -4.721,1.995c-12.879,3.155 -24.433,-6.566 -24.433,-18.941l-0,-86.684l-39.988,0Z" style="fill:url(#_Linear2);fill-rule:nonzero;"/><path d="M1658.88,712.376l-24.4,0l0,39.992l24.4,-0c33.738,-0 61.183,27.446 61.183,61.183l0,69.946l39.988,-0l-0,-69.946c-0,-55.871 -45.296,-101.175 -101.171,-101.175Z" style="fill:url(#_Radial3);fill-rule:nonzero;"/><path d="M1754.04,776.272c-6.842,-17.446 -18.342,-32.675 -33.301,-44.075l-0.695,-0.529l-0,17.583c-0,9.121 -5.78,17.738 -14.642,19.908c-1.912,0.471 -3.787,0.621 -5.608,0.555l0.8,0.775c9.962,9.658 16.312,22.512 17.875,36.2l0.033,0.283c15.617,-4.95 28.45,-16.163 35.538,-30.7" style="fill:#fff;fill-rule:nonzero;"/><path d="M1499.93,712.376c-33.483,0 -60.508,27.65 -59.495,61.363c0.974,32.579 29.399,57.695 61.995,57.695l44.338,0l-0,-39.987l-44.338,-0c-11.633,-0 -21.72,-8.658 -22.025,-18.908c-0.216,-7.225 3.355,-12.021 5.5,-14.234c2.15,-2.216 6.834,-5.937 14.025,-5.937l46.838,-0l-0,-39.992l-46.838,0Z" style="fill:url(#_Linear4);fill-rule:nonzero;"/><path d="M1520.37,711.564l-20.434,-0c-6.587,-0 -13.166,1.116 -19.558,3.308l0.004,57.275c-0.067,-6.783 3.25,-11.229 5.233,-13.271c2.063,-2.125 6.55,-5.687 13.442,-5.687l21.313,-0l-0,-41.625Z" style="fill:#fff;fill-rule:nonzero;"/><path d="M1469.86,720.584c-18.096,10.634 -30.109,30.5 -29.426,53.155c0.975,32.579 29.4,57.695 61.996,57.695l44.338,0l-0,-39.987l-44.338,-0c-37.721,-0 -32.571,-35.492 -32.571,-70.863" style="fill:#fff;fill-rule:nonzero;"/><defs><linearGradient id="_Linear1" x1="0" y1="0" x2="1" y2="0" gradientUnits="userSpaceOnUse" gradientTransform="matrix(-1.63832,-129.427,129.427,-1.63832,1501.21,872.739)"><stop offset="0" style="stop-color:#fff;stop-opacity:1"/><stop offset="0.12" style="stop-color:#fff;stop-opacity:1"/><stop offset="0.54" style="stop-color:#4f4c4d;stop-opacity:1"/><stop offset="0.83" style="stop-color:#fff;stop-opacity:1"/><stop offset="1" style="stop-color:#fff;stop-opacity:1"/></linearGradient><linearGradient id="_Linear2" x1="0" y1="0" x2="1" y2="0" gradientUnits="userSpaceOnUse" gradientTransform="matrix(-9.81329,-93.59,93.59,-9.81329,1677.18,775.789)"><stop offset="0" style="stop-color:#fff;stop-opacity:1"/><stop offset="0.03" style="stop-color:#fff;stop-opacity:1"/><stop offset="0.53" style="stop-color:#504c4d;stop-opacity:1"/><stop offset="0.55" style="stop-color:#4f4c4d;stop-opacity:1"/><stop offset="0.93" style="stop-color:#fefefe;stop-opacity:1"/><stop offset="0.95" style="stop-color:#fff;stop-opacity:1"/><stop offset="1" style="stop-color:#fff;stop-opacity:1"/></linearGradient><radialGradient id="_Radial3" cx="0" cy="0" r="1" gradientUnits="userSpaceOnUse" gradientTransform="matrix(-31.0106,-45.2708,45.2708,-31.0106,1725.08,780.105)"><stop offset="0" style="stop-color:#4f4c4d;stop-opacity:1"/><stop offset="1" style="stop-color:#fff;stop-opacity:1"/></radialGradient><linearGradient id="_Linear4" x1="0" y1="0" x2="1" y2="0" gradientUnits="userSpaceOnUse" gradientTransform="matrix(74.2125,0,0,74.2125,1469.91,771.905)"><stop offset="0" style="stop-color:#fff;stop-opacity:1"/><stop offset="0.05" style="stop-color:#fff;stop-opacity:1"/><stop offset="0.45" style="stop-color:#4f4c4d;stop-opacity:1"/><stop offset="0.61" style="stop-color:#c4c3c3;stop-opacity:1"/><stop offset="1" style="stop-color:#fff;stop-opacity:1"/></linearGradient></defs></svg>